<svg xmlns="http://www.w3.org/2000/svg" xmlns:xlink="http://www.w3.org/1999/xlink" style="" version="1.1" xml:space="preserve" width="24" height="24"><rect id="backgroundrect" width="100%" height="100%" x="0" y="0" fill="none" stroke="none"/><g class="currentLayer" style=""><title>Layer 1</title><polygon points="8.000000238418579,18.979000031753458 5.000000238418579,15.979000985427774 5.000000238418579,10.979000985427774 13.000000238418579,18.979000031753458 " id="svg_1" class="" fill="#ffffff" fill-opacity="1"/><path d="M23.97900023841858,7.470091949457469e-7 C23.97900023841858,7.470091949457469e-7 15.000000238418579,-0.020999252990804965 8.000000238418579,6.979000747009195 c-2.99,2.99 -3,8 -1,10 s7.01,1.99 10,-1 C24.00000023841858,8.979000747009195 23.97900023841858,7.470091949457469e-7 23.97900023841858,7.470091949457469e-7 zM14.000000238418579,7.979000747009195 c0,-1.105 0.8950000000000002,-2 2,-2 c1.105,0 2,0.8950000000000002 2,2 s-0.8950000000000002,2 -2,2 C14.895000238418579,9.979000747009195 14.000000238418579,9.084000747009195 14.000000238418579,7.979000747009195 z" id="svg_2" class="" fill="#919191" fill-opacity="1"/><path d="M15.811000238418579,15.655000747009197 c0,0 0.7570000000000002,3.784 -0.7570000000000002,5.297 C12.78400023841858,23.222000747009194 9.000000238418579,23.979000747009195 9.000000238418579,23.979000747009195 l1,-7 L15.811000238418579,15.655000747009197 z" id="svg_3" class="" fill="#6d6d6d" fill-opacity="1"/><path d="M8.324000238418579,8.168000747009195 c0,0 -3.784,-0.7570000000000002 -5.297,0.7570000000000002 C0.7570002384185793,11.195000747009194 2.384185791015625e-7,14.979000747009195 2.384185791015625e-7,14.979000747009195 l7,-1 L8.324000238418579,8.168000747009195 z" id="svg_4" class="" fill="#6d6d6d" fill-opacity="1"/><path d="M6.542000238418579,19.319000747009195 c-0.04500000000000002,0.06400000000000003 -0.07200000000000002,0.138 -0.13,0.19500000000000006 c-0.975,0.975 -2.438,0.4880000000000001 -2.438,0.4880000000000001 s-0.4880000000000001,-1.463 0.4880000000000001,-2.438 c0.05800000000000002,-0.05800000000000002 0.131,-0.08400000000000003 0.19500000000000006,-0.13 L4.200000238418579,16.976000747009195 c-0.3800000000000001,0.1 -0.7410000000000002,0.2900000000000001 -1.038,0.5870000000000002 c-1.366,1.366 -1.149,4.4 -1.149,4.4 s3.016,0.23500000000000001 4.4,-1.149 C6.71000023841858,20.517000747009195 6.9000002384185795,20.156000747009195 7.000000238418579,19.776000747009196 L6.542000238418579,19.319000747009195 z" id="svg_5" class="" fill="#d50b0b" fill-opacity="1"/></g></svg>